<svg width="41" height="36" viewBox="0 0 41 36" fill="none" xmlns="http://www.w3.org/2000/svg">
<path d="M18 28.85C20.0333 28.85 21.75 28.1583 23.15 26.775C24.55 25.3917 25.25 23.6833 25.25 21.65C25.25 19.5833 24.55 17.8583 23.15 16.475C21.75 15.0917 20.0333 14.4 18 14.4C15.9667 14.4 14.25 15.0917 12.85 16.475C11.45 17.8583 10.75 19.5833 10.75 21.65C10.75 23.6833 11.45 25.3917 12.85 26.775C14.25 28.1583 15.9667 28.85 18 28.85ZM2.75 35.55C1.98333 35.55 1.33333 35.2833 0.8 34.75C0.266667 34.2167 0 33.5667 0 32.8V10.45C0 9.68333 0.266667 9.03333 0.8 8.5C1.33333 7.96667 1.98333 7.7 2.75 7.7H9.2L12.05 4.45C12.2833 4.15 12.575 3.925 12.925 3.775C13.275 3.625 13.6667 3.55 14.1 3.55H24.55C24.95 3.55 25.2833 3.68333 25.55 3.95C25.8167 4.21667 25.95 4.55 25.95 4.95V9.25L2.75 10.45C2.41667 10.45 2.13333 10.45 1.9 10.45C1.66667 10.45 1.55 10.45 1.55 10.45V32.8C1.55 33.1333 1.66667 33.4167 1.9 33.65C2.13333 33.8833 2.41667 34 2.75 34H33.25C33.5833 34 33.8667 33.8833 34.1 33.65C34.3333 33.4167 34.45 33.1333 34.45 32.8V14.6311V14.25H34.65C34.15 14.25 33.9417 14.2917 34.025 14.375C34.0935 14.4435 34.2352 14.5289 34.45 14.6311C34.4966 14.6533 34.5466 14.6762 34.6 14.7C34.9 14.8333 35.2083 14.9833 35.525 15.15C35.8417 15.3167 36 15.4833 36 15.65V32.8C36 33.5667 35.7333 34.2167 35.2 34.75C34.6667 35.2833 34.0167 35.55 33.25 35.55H2.75ZM34.5 5.7H31.15C30.9167 5.7 30.725 5.625 30.575 5.475C30.425 5.325 30.35 5.13333 30.35 4.9C30.35 4.7 30.425 4.525 30.575 4.375C30.725 4.225 30.9167 4.15 31.15 4.15H34.5V0.8C34.5 0.566667 34.575 0.375 34.725 0.225C34.875 0.0749999 35.0667 0 35.3 0C35.5 0 35.675 0.0749999 35.825 0.225C35.975 0.375 36.05 0.566667 36.05 0.8V4.15H39.45C39.65 4.15 39.825 4.225 39.975 4.375C40.125 4.525 40.2 4.71667 40.2 4.95C40.2 5.18333 40.125 5.36667 39.975 5.5C39.825 5.63333 39.65 5.7 39.45 5.7H36.05V9.1C36.05 9.3 35.975 9.475 35.825 9.625C35.675 9.775 35.4833 9.85 35.25 9.85C35.05 9.85 34.875 9.775 34.725 9.625C34.575 9.475 34.5 9.3 34.5 9.1V5.7ZM1.55 10.45V12.85C1.55 13.25 1.55 13.5833 1.55 13.85C1.55 14.1167 1.55 14.25 1.55 14.25V32.8V10.45Z" fill="#FF6D4D"/>
</svg>
