<svg width="10" height="20" viewBox="0 0 10 20" fill="none" xmlns="http://www.w3.org/2000/svg">
<path d="M5.3569 19.8673L9.85238 15.7835C10.0492 15.6044 10.0492 15.314 9.85238 15.1344C9.65555 14.9552 9.33586 14.9552 9.13903 15.1344L5.00025 18.8942L0.861466 15.1348C0.66464 14.9557 0.344944 14.9557 0.147619 15.1348C-0.0492065 15.314 -0.0492065 15.6048 0.147619 15.784L4.64306 19.8677C4.83785 20.0442 5.16257 20.0442 5.3569 19.8673Z" fill="white" fill-opacity="0.38"/>
<path d="M4.6431 0.132725L0.147619 4.21645C-0.0492069 4.39564 -0.0492069 4.68596 0.147619 4.86561C0.344445 5.0448 0.664141 5.0448 0.860967 4.86561L4.99975 1.1058L9.13853 4.86515C9.33536 5.04434 9.65506 5.04434 9.85238 4.86515C10.0492 4.68596 10.0492 4.39519 9.85238 4.216L5.35694 0.132272C5.16215 -0.0441664 4.83743 -0.0441664 4.6431 0.132725Z" fill="white" fill-opacity="0.38"/>
</svg>
