<svg width="32" height="32" viewBox="0 0 32 32" fill="none" xmlns="http://www.w3.org/2000/svg">
<path d="M16 14.2222C11.2296 14.2222 7.37037 13.4963 4.42222 12.0444C1.47407 10.5926 0 8.94815 0 7.11111C0 5.24444 1.47407 3.59259 4.42222 2.15556C7.37037 0.718519 11.2296 0 16 0C20.7704 0 24.6296 0.718519 27.5778 2.15556C30.5259 3.59259 32 5.24444 32 7.11111C32 8.94815 30.5259 10.5926 27.5778 12.0444C24.6296 13.4963 20.7704 14.2222 16 14.2222ZM16 23.1111C11.6741 23.1111 7.92593 22.4593 4.75556 21.1556C1.58519 19.8519 0 18.2815 0 16.4444V12C0 13.1556 0.555556 14.1556 1.66667 15C2.77778 15.8444 4.15556 16.5407 5.8 17.0889C7.44444 17.637 9.19259 18.037 11.0444 18.2889C12.8963 18.5407 14.5481 18.6667 16 18.6667C17.4815 18.6667 19.1407 18.5407 20.9778 18.2889C22.8148 18.037 24.5556 17.6444 26.2 17.1111C27.8444 16.5778 29.2222 15.8889 30.3333 15.0444C31.4444 14.2 32 13.1852 32 12V16.4444C32 18.2815 30.4148 19.8519 27.2444 21.1556C24.0741 22.4593 20.3259 23.1111 16 23.1111ZM16 32C11.6741 32 7.92593 31.3481 4.75556 30.0444C1.58519 28.7407 0 27.1704 0 25.3333V20.8889C0 22.0444 0.555556 23.0444 1.66667 23.8889C2.77778 24.7333 4.15556 25.4296 5.8 25.9778C7.44444 26.5259 9.19259 26.9259 11.0444 27.1778C12.8963 27.4296 14.5481 27.5556 16 27.5556C17.4815 27.5556 19.1407 27.4296 20.9778 27.1778C22.8148 26.9259 24.5556 26.5333 26.2 26C27.8444 25.4667 29.2222 24.7778 30.3333 23.9333C31.4444 23.0889 32 22.0741 32 20.8889V25.3333C32 27.1704 30.4148 28.7407 27.2444 30.0444C24.0741 31.3481 20.3259 32 16 32Z" fill="#FF6D4D"/>
</svg>
