<svg width="16" height="20" viewBox="0 0 16 20" fill="none" xmlns="http://www.w3.org/2000/svg">
<path d="M1.52778 20C1.10185 20 0.740741 19.8519 0.444445 19.5556C0.148148 19.2593 0 18.8981 0 18.4722V1.52778C0 1.10185 0.148148 0.740741 0.444445 0.444445C0.740741 0.148148 1.10185 0 1.52778 0H10.8056L15.5556 4.75V18.4722C15.5556 18.8981 15.4074 19.2593 15.1111 19.5556C14.8148 19.8519 14.4537 20 14.0278 20H1.52778ZM10.3889 5.11111V0.861111H1.52778C1.36111 0.861111 1.20833 0.930556 1.06944 1.06944C0.930556 1.20833 0.861111 1.36111 0.861111 1.52778V18.4722C0.861111 18.6389 0.930556 18.7917 1.06944 18.9306C1.20833 19.0694 1.36111 19.1389 1.52778 19.1389H14.0278C14.1944 19.1389 14.3472 19.0694 14.4861 18.9306C14.625 18.7917 14.6944 18.6389 14.6944 18.4722V5.11111H10.3889ZM0.861111 0.861111V5.11111V0.861111V19.1389V0.861111Z" fill="white" />
</svg>
