<svg width="19" height="35" viewBox="0 0 19 35" fill="none" xmlns="http://www.w3.org/2000/svg">
<path d="M9.27764 35C6.72739 35 4.54355 34.1206 2.72613 32.3618C0.908711 30.603 0 28.4338 0 25.8543V6.55151C0 4.73409 0.644891 3.18781 1.93467 1.91269C3.22446 0.637563 4.77806 0 6.59548 0C8.4129 0 9.95917 0.637563 11.2343 1.91269C12.5094 3.18781 13.147 4.73409 13.147 6.55151V24.1834C13.147 25.268 12.7732 26.1914 12.0258 26.9535C11.2783 27.7157 10.3622 28.0967 9.27764 28.0967C8.19305 28.0967 7.27701 27.6937 6.52952 26.8876C5.78204 26.0814 5.40829 25.1214 5.40829 24.0075V6.50754H6.8593V24.0955C6.8593 24.8283 7.0938 25.4366 7.56281 25.9202C8.03183 26.4039 8.60343 26.6457 9.27764 26.6457C9.95184 26.6457 10.5235 26.4039 10.9925 25.9202C11.4615 25.4366 11.696 24.8576 11.696 24.1834V6.55151C11.696 5.14447 11.1977 3.94263 10.201 2.94598C9.20435 1.94933 8.00251 1.451 6.59548 1.451C5.15913 1.451 3.94263 1.94933 2.94598 2.94598C1.94933 3.94263 1.45101 5.14447 1.45101 6.55151V25.9422C1.45101 28.0821 2.22048 29.8848 3.75942 31.3505C5.29837 32.8162 7.13777 33.549 9.27764 33.549C11.4468 33.549 13.2935 32.8088 14.8178 31.3285C16.3421 29.8482 17.1043 28.0234 17.1043 25.8543V6.50754H18.5553V25.8543C18.5553 28.4045 17.6466 30.5664 15.8291 32.3398C14.0117 34.1133 11.8279 35 9.27764 35Z" fill="#FF6D4D"/>
</svg>
