<svg
  width="14"
  height="14"
  viewBox="0 0 14 14"
  fill="none"
xmlns="http://www.w3.org/2000/svg"
>
  <path
    d="M6.12042 12.5157V10.5916L3.70157 8.06283V4.81937C3.70157 4.62391 3.7596 4.44983 3.87565 4.29712C3.99171 4.14442 4.1719 4.04363 4.41623 3.99476V4.81937L0 0.403141L0.403141 0L14 13.5969L13.6152 14L9.40052 9.78534L8.61257 10.5916V12.5157H6.12042ZM10.7749 8.53927L5.60733 3.39005V0.787958H6.17539V3.81152H8.55759V0.787958H9.12565V4.08639L8.83246 3.81152H10.0236C10.2923 3.81152 10.5275 3.9123 10.7291 4.11387C10.9306 4.31545 11.0314 4.55061 11.0314 4.81937V8.24607L10.7749 8.53927Z"
    fill="#FF0000"
  />
</svg>
