<svg width="212" height="40" viewBox="0 0 212 40" fill="none" xmlns="http://www.w3.org/2000/svg">
<path d="M54.2316 30.4265C52.3555 30.4265 50.899 30.179 49.8128 29.684C47.6651 28.6444 46.8752 26.7386 46.8752 23.9417V23.8922H52.8492V24.0654C52.8492 25.006 53.2689 25.5505 54.4291 25.5505C55.3919 25.5505 55.7375 25.204 55.7375 24.6099C55.7375 24.3129 55.5893 24.0654 55.2931 23.8674C54.7006 23.4961 53.6885 23.2734 52.5283 23.0011C51.294 22.7041 49.9609 22.3081 48.8748 21.516C47.7886 20.7487 47.0727 19.5359 47.0727 17.6053C47.0727 14.0659 49.5906 11.7887 54.3797 11.7887C58.8232 11.7887 61.3659 13.7193 61.3659 17.7291V17.8033H55.6634V17.7538C55.6634 16.7885 55.1944 16.343 54.2069 16.343C53.2689 16.343 52.9479 16.739 52.9479 17.3083C52.9479 18.1003 54.3304 18.3231 56.009 18.7439C57.268 19.0409 58.601 19.4617 59.7366 20.3032C60.8721 21.0953 61.6127 22.3576 61.6127 24.3129C61.6127 28.2484 59.1688 30.4265 54.2316 30.4265ZM71.1988 27.9266C70.5323 29.4117 69.2239 30.3028 67.2491 30.3028C64.2374 30.3028 62.7562 28.4712 62.7562 25.0555V15.5757H68.5327V23.2734C68.5327 24.5357 68.6315 25.3277 69.6189 25.3277C70.6557 25.3277 70.7545 24.4862 70.7545 23.1249V15.5757H76.6297V30.0553H71.7419L71.1988 27.9266ZM87.6476 30.3028C85.8209 30.3028 84.7347 29.6345 84.0682 28.4464V34.956H78.341V15.5757H83.3029L83.8213 17.6548C84.4384 16.1945 85.6481 15.3282 87.5736 15.3282C90.9062 15.3282 92.8317 17.7291 92.8317 22.8031V23.2981C92.8317 24.9565 92.6095 26.293 92.1405 27.3326C91.2518 29.387 89.6225 30.3028 87.6476 30.3028ZM85.5987 25.5257C86.5368 25.5257 87.2033 24.907 87.2033 23.2239V22.8278C87.2033 20.7487 86.5368 20.2042 85.5987 20.2042C84.6606 20.2042 84.0188 20.7735 84.0188 22.8278V23.2239C84.0188 24.8575 84.6606 25.5257 85.5987 25.5257ZM108.861 25.1545C108.639 26.2188 108.194 27.1346 107.602 27.9266C106.417 29.5107 104.442 30.4265 101.332 30.4265C96.1969 30.4265 93.9011 27.7039 93.9011 23.2239V22.7041C93.9011 21.1448 94.222 19.8082 94.8392 18.7191C96.0982 16.4915 98.394 15.3282 101.406 15.3282C103.158 15.3282 104.565 15.6499 105.652 16.2687C107.873 17.531 108.861 19.7834 108.861 22.5308V24.2634H99.6283C99.8011 25.4267 100.344 25.996 101.48 25.996C102.319 25.996 102.64 25.5752 102.813 25.1545H108.861ZM101.455 19.6102C100.369 19.6102 99.8258 20.0804 99.6283 21.1448H103.208C103.084 20.1052 102.591 19.6102 101.455 19.6102ZM110.103 30.0553V15.5757H114.695L115.485 18.2983C115.855 15.9717 117.262 15.3282 119.805 15.3282H120.471L120.446 21.4913H118.521C116.595 21.4913 116.126 22.0853 116.126 23.9169V30.0553H110.103ZM127.49 30.0553H121.689V15.5757H126.552L127.021 17.5311C127.786 16.1697 129.095 15.3282 130.946 15.3282C132.921 15.3282 134.229 16.0707 134.92 17.6301C135.686 16.1945 136.969 15.3282 138.895 15.3282C141.931 15.3282 143.437 17.135 143.437 20.5755V30.0553H137.685V22.3576C137.685 21.0952 137.587 20.3032 136.599 20.3032C135.562 20.3032 135.464 21.1448 135.464 22.5061V30.0553H129.712V22.3576C129.712 21.0952 129.613 20.3032 128.626 20.3032C127.589 20.3032 127.49 21.1448 127.49 22.5061V30.0553ZM153.344 28.2236C152.678 29.5107 151.443 30.4265 149.098 30.4265C145.914 30.4265 144.507 28.9662 144.507 26.5406C144.507 24.6594 145.247 23.5951 146.407 22.8773C147.469 22.2091 148.53 21.9863 150.505 21.6893C152.332 21.417 153.073 21.2438 153.073 20.5755C153.073 20.1052 152.875 19.7587 152.011 19.7587C151.147 19.7587 150.727 20.1794 150.727 21.0705H144.926C145 19.9072 145.296 18.9171 145.815 18.0508C146.876 16.3182 148.901 15.3282 152.184 15.3282C153.838 15.3282 155.097 15.5757 156.06 16.0955C158.01 17.0855 158.775 18.9419 158.775 21.3675V30.0553H153.986L153.344 28.2236ZM151.616 26.3673C152.48 26.3673 153.073 25.699 153.073 24.9812V24.0407C152.85 24.2139 152.505 24.3129 152.085 24.4119C151.369 24.5852 151.122 24.6594 150.9 24.8327C150.678 25.006 150.555 25.2782 150.555 25.6C150.555 26.1198 150.999 26.3673 151.616 26.3673ZM166.633 30.4513C162.437 30.4513 159.943 28.5454 159.449 25.1545H165.201C165.522 25.9218 166.139 26.3178 167.028 26.3178C167.793 26.3178 168.164 26.095 168.164 25.6248C168.164 24.9565 166.905 24.907 165.349 24.7337C164.165 24.6099 162.856 24.3872 161.77 23.7684C160.684 23.1744 159.968 22.1101 159.968 20.2785C159.968 17.2835 162.437 15.3034 166.633 15.3034C168.164 15.3034 169.373 15.5262 170.361 15.947C172.311 16.7638 173.298 18.3231 173.619 20.3032H168.114C167.941 19.7092 167.398 19.2141 166.534 19.2141C165.818 19.2141 165.448 19.5607 165.448 19.9567C165.448 20.427 166.041 20.526 168.213 20.7982C169.398 20.922 170.731 21.1943 171.867 21.813C172.953 22.4318 173.718 23.4714 173.718 25.2287C173.718 26.2188 173.446 27.1346 172.928 27.9266C171.867 29.486 169.818 30.4513 166.633 30.4513ZM181.305 30.4513C177.108 30.4513 174.615 28.5454 174.121 25.1545H179.873C180.194 25.9218 180.811 26.3178 181.699 26.3178C182.465 26.3178 182.835 26.095 182.835 25.6248C182.835 24.9565 181.576 24.907 180.021 24.7337C178.836 24.6099 177.528 24.3872 176.441 23.7684C175.355 23.1744 174.639 22.1101 174.639 20.2785C174.639 17.2835 177.108 15.3034 181.305 15.3034C182.835 15.3034 184.045 15.5262 185.032 15.947C186.982 16.7638 187.97 18.3231 188.291 20.3032H182.786C182.613 19.7092 182.07 19.2141 181.206 19.2141C180.49 19.2141 180.12 19.5607 180.12 19.9567C180.12 20.427 180.712 20.526 182.884 20.7982C184.069 20.922 185.402 21.1943 186.538 21.813C187.624 22.4318 188.389 23.4714 188.389 25.2287C188.389 26.2188 188.118 27.1346 187.599 27.9266C186.538 29.486 184.489 30.4513 181.305 30.4513ZM192.347 15.5014C189.977 15.5014 189.113 14.9569 189.113 13.1748C189.113 11.3927 190.125 10.8234 192.347 10.8234C194.519 10.8234 195.581 11.3927 195.581 13.1748C195.581 14.9074 194.594 15.5014 192.347 15.5014ZM189.335 15.7985C189.829 16.1202 190.817 16.3182 192.347 16.3182C193.902 16.3182 194.865 16.0707 195.383 15.749V30.0553H189.335V15.7985ZM200.847 30.0553L195.786 15.5757H201.637L203.637 22.4071L205.661 15.5757H211.536L206.253 30.0553H200.847Z" fill="white"/>
<mask id="mask0_3173_172" style="mask-type:alpha" maskUnits="userSpaceOnUse" x="0" y="0" width="164" height="40">
<path d="M0 0.213531H163.801V39.9867H0V0.213531Z" fill="white"/>
</mask>
<g mask="url(#mask0_3173_172)">
<path fill-rule="evenodd" clip-rule="evenodd" d="M34.8113 20.9841C34.798 16.3085 31.5 14.4239 27.4416 16.7733C23.3858 19.1211 20.1063 24.813 20.1195 29.4888C20.1327 34.1615 23.4336 36.0442 27.4894 33.6966C31.5478 31.3472 34.8244 25.6568 34.8113 20.9841ZM25.9154 14.1465C29.9476 11.7971 29.9263 7.99094 25.8705 5.64331C21.8121 3.29392 15.2586 3.29392 11.2264 5.64331C7.19707 7.99116 7.21845 11.7971 11.2769 14.1465C15.3326 16.4944 21.8859 16.4944 25.9154 14.1465ZM17.1392 29.4882C17.1524 24.8157 13.8757 19.122 9.81731 16.7726C5.76153 14.425 2.46088 16.3109 2.44762 20.9834C2.43422 25.6594 5.71371 31.3514 9.76948 33.699C13.8279 36.0484 17.1259 34.164 17.1392 29.4882ZM37.1445 14.9087V25.3045C37.1445 28.4183 35.0376 32.0773 32.3479 33.6345L23.3688 38.832C22.0243 39.6106 20.2981 40 18.5722 40C16.8462 40 15.1206 39.6108 13.7757 38.832L4.79636 33.6345C2.10691 32.0773 0 28.4181 0 25.3045V14.9087C0 11.7947 2.10691 8.13591 4.79636 6.579L13.7757 1.38121C16.4658 -0.175695 20.6794 -0.175695 23.3688 1.38121L32.3479 6.579C35.0376 8.13591 37.1445 11.7947 37.1445 14.9087ZM31.1268 22.042L28.7149 23.438L29.3234 19.3768C29.3596 19.135 29.2688 18.9666 29.0995 18.9543C29.0307 18.9512 28.956 18.9733 28.8822 19.0161C28.7713 19.0802 28.6622 19.1907 28.5762 19.3317L23.4973 27.7056C23.3629 27.9264 23.3183 28.1828 23.3836 28.3432C23.4546 28.5003 23.6181 28.5355 23.8039 28.4278L26.1455 27.0725L25.1455 31.2988C25.0843 31.5551 25.1581 31.7558 25.3217 31.7845C25.3979 31.7989 25.4852 31.7808 25.5751 31.7288C25.6794 31.6685 25.7834 31.5629 25.8647 31.4378L31.4193 22.7852C31.5624 22.5627 31.6153 22.3048 31.55 22.1381C31.4846 21.9713 31.3155 21.9328 31.1268 22.042ZM8.07607 19.4055C8.04587 19.381 8.01479 19.3593 7.98327 19.341C7.88541 19.2844 7.78402 19.261 7.69872 19.2877C7.59711 19.333 7.53474 19.4429 7.5343 19.5856L7.52041 24.5143C7.35466 24.347 7.19134 24.2102 7.00289 24.1012C6.22043 23.6484 5.58499 24.0077 5.58255 24.9094C5.57992 25.8108 6.21117 26.9039 6.99363 27.3567C7.77609 27.8097 8.40867 27.4482 8.41109 26.5467L8.42365 22.1109L12.0435 25.08L12.0344 28.2349C11.8687 28.0676 11.7056 27.9277 11.5171 27.8186C10.7347 27.3657 10.1021 27.7302 10.0994 28.6285C10.097 29.5299 10.7254 30.6245 11.5076 31.0776C12.2901 31.5304 12.9227 31.1655 12.9253 30.2643L12.9434 23.8243C12.9441 23.5779 12.7929 23.2727 12.5929 23.1116L8.07607 19.4055ZM23.3651 10.101C23.3695 10.4024 23.0424 10.5996 22.5524 10.7673L16.4902 12.8155C16.1347 12.9344 15.8881 12.9735 15.6242 12.9735C15.3366 12.9744 15.0536 12.9098 14.8431 12.7881C14.6372 12.6687 14.5008 12.4946 14.4982 12.2729L14.4739 7.92596C14.4713 7.47955 15.0225 7.22364 15.5921 7.2254C15.8557 7.2254 16.103 7.26453 16.4598 7.38342L22.5449 9.43469C22.7292 9.49635 22.8903 9.56287 23.0199 9.63779C23.2359 9.76287 23.364 9.9116 23.3651 10.101Z" fill="white"/>
</g>
</svg>
