<svg width="32" height="32" viewBox="0 0 32 32" fill="none" xmlns="http://www.w3.org/2000/svg">
<path d="M18.8375 31.4035C18.4508 31.7892 17.9894 31.9821 17.4532 31.9821C16.917 31.9821 16.4561 31.7892 16.0703 31.4035L0.568997 15.9021C0.353485 15.6866 0.204768 15.4602 0.122844 15.2229C0.040948 14.9855 0 14.7356 0 14.4733V1.90733C0 1.36208 0.181583 0.907885 0.544748 0.544748C0.907885 0.181582 1.36208 0 1.90733 0H14.4733C14.7232 0 14.9759 0.0391547 15.2311 0.117464C15.4864 0.195774 15.7219 0.335498 15.9377 0.536637L31.3711 15.9701C31.7849 16.3839 31.9945 16.8645 31.9999 17.4119C32.0053 17.9593 31.8065 18.4345 31.4035 18.8375L18.8375 31.4035ZM6.26973 8.09166C6.77315 8.09166 7.20698 7.90749 7.57121 7.53914C7.93544 7.17079 8.11755 6.73491 8.11755 6.23149C8.11755 5.72806 7.93607 5.29424 7.5731 4.93001C7.21013 4.56581 6.77693 4.3837 6.27351 4.3837C5.75933 4.3837 5.32013 4.56518 4.9559 4.92812C4.59167 5.29109 4.40955 5.72428 4.40955 6.2277C4.40955 6.73113 4.59104 7.16764 4.95401 7.53725C5.31695 7.90686 5.75552 8.09166 6.26973 8.09166Z" fill="#FF6D4D"/>
</svg>
