<svg width="102" height="25" viewBox="0 0 102 25" fill="none" xmlns="http://www.w3.org/2000/svg">
<path d="M9.27733 25C15.0836 25 18.5231 21.9381 18.5231 14.8043V1.79924H10.792V14.5202C10.792 17.1717 10.508 17.8346 9.27733 17.8346C8.236 17.8346 7.73111 17.1086 7.73111 14.5202V1.79924H0V14.8043C0 21.9381 2.93467 25 9.27733 25Z" fill="white" fill-opacity="0.87"/>
<path d="M20.3642 24.5265H28.0637V16.6982C28.0637 14.3624 28.6633 13.6048 31.1246 13.6048H33.586L33.6175 5.74495H32.7655C29.5153 5.74495 27.7166 6.56566 27.2433 9.53283L26.2335 6.0606H20.3642V24.5265Z" fill="white" fill-opacity="0.87"/>
<path d="M43.6127 25C47.3679 25 50.271 23.8952 51.8803 21.3068C52.6692 20.0442 53.0794 18.4028 53.0794 16.3194V16.1301H45.5061V16.2247C45.5061 17.9924 44.8434 18.7184 43.6443 18.7184C42.4452 18.7184 41.6563 17.8346 41.6563 15.7513V15.1515C41.6563 12.8157 42.319 11.9318 43.6758 11.9318C44.9381 11.9318 45.4745 12.5631 45.4745 14.2992V14.4571H53.0479V14.3308C53.0479 10.322 51.407 7.85985 48.567 6.66035C47.1785 6.02904 45.5376 5.74495 43.6443 5.74495C39.9523 5.74495 37.0807 7.13384 35.4714 9.91161C34.6825 11.3005 34.2723 13.0682 34.2723 15.1831V15.846C34.2723 22.096 37.5225 25 43.6127 25Z" fill="white" fill-opacity="0.87"/>
<path d="M61.6941 24.5265V14.899C61.6941 13.1629 61.8834 12.0896 63.2087 12.0896C64.471 12.0896 64.6603 13.0997 64.6603 14.7096V24.5265H72.0443V12.4369C72.0443 8.04924 70.4981 5.74495 66.6167 5.74495C64.2185 5.74495 62.5776 6.78661 61.6941 8.55429V0.220959H54.247V24.5265H61.6941Z" fill="white" fill-opacity="0.87"/>
<path d="M77.7191 5.96591C80.5907 5.96591 81.8529 5.20833 81.8529 2.99874C81.8529 0.72601 80.496 0 77.7191 0C74.8791 0 73.5853 0.72601 73.5853 2.99874C73.5853 5.27146 74.6898 5.96591 77.7191 5.96591ZM73.8693 6.3447V24.5265H81.6004V6.28157C80.9378 6.69192 79.7071 7.00758 77.7191 7.00758C75.7627 7.00758 74.5005 6.75505 73.8693 6.3447Z" fill="white" fill-opacity="0.87"/>
<path d="M91.0792 24.5265V14.899C91.0792 13.1629 91.2685 12.0896 92.5939 12.0896C93.8561 12.0896 94.0454 13.0997 94.0454 14.7096V24.5265H101.493V12.4369C101.493 8.04924 99.5045 5.74495 95.7494 5.74495C93.1619 5.74495 91.4579 6.84975 90.5428 8.71212L89.8801 6.0606H83.569V24.5265H91.0792Z" fill="white" fill-opacity="0.87"/>
</svg>
